<svg xmlns="http://www.w3.org/2000/svg" width="1200" height="630" viewBox="0 0 1200 630" role="img" aria-label="Brandon Chiesa — Builder. Explorer. Rooted in curiosity.">
  <rect width="1200" height="630" fill="#f3eadc"/>
  <g stroke="#4d6a82" stroke-width="0.4" opacity="0.22">
    <path d="M0 90 H1200 M0 180 H1200 M0 270 H1200 M0 360 H1200 M0 450 H1200 M0 540 H1200"/>
    <path d="M120 0 V630 M240 0 V630 M360 0 V630 M480 0 V630 M600 0 V630 M720 0 V630 M840 0 V630 M960 0 V630 M1080 0 V630"/>
  </g>
  <g fill="none" stroke="#2a3d50" stroke-width="1.2" opacity="0.45">
    <path d="M40 40 H80 M40 40 V80"/>
    <path d="M1160 40 H1120 M1160 40 V80"/>
    <path d="M40 590 H80 M40 590 V550"/>
    <path d="M1160 590 H1120 M1160 590 V550"/>
  </g>
  <g fill="none" stroke="#4d6a82" stroke-width="1.4" opacity="0.7">
    <path d="M80 500 C200 460 320 480 420 440 C520 400 620 420 760 360 C900 300 1020 320 1120 280"/>
    <path d="M80 540 C240 500 380 530 520 480 C660 430 820 460 1120 340"/>
    <path d="M80 570 C300 540 500 560 700 510 C900 460 1000 480 1120 420"/>
  </g>
  <text x="600" y="250" text-anchor="middle" font-family="Georgia, 'Times New Roman', serif" font-size="56" letter-spacing="8" fill="#1b2430">[ BRANDON CHIESA ]</text>
  <text x="600" y="310" text-anchor="middle" font-family="ui-monospace, Consolas, monospace" font-size="18" letter-spacing="4" fill="#3d4c5c">BUILDER. EXPLORER. ROOTED IN CURIOSITY.</text>
  <text x="600" y="400" text-anchor="middle" font-family="ui-monospace, Consolas, monospace" font-size="14" letter-spacing="3" fill="#4d6a82">WORK · MAKE · GO · ROOTS · NOW</text>
</svg>
